# xmcd
#
# Track frame offsets: 
#        150
#        19092
#        38856
#        57877
#        77521
#        99557
#        118918
#        134596
#        160920
#        178898
#
# Disc length: 2690 seconds
#
# Revision: 2
# Processed by: cddbd v1.5.2PL0 Copyright (c) Steve Scherf et al.
# Submitted via: ExactAudioCopy v0.95b4
#
DISCID=840a800a
DTITLE=Moonlight Agony - Silent Waters
DYEAR=2007
DGENRE=Melodic/Progressive Power Metal
TTITLE0=Leaving Solitude
TTITLE1=You Betrayed Me
TTITLE2=Soulless
TTITLE3=Through The Desert Storm
TTITLE4=The Dark Era
TTITLE5=I'm Alive
TTITLE6=Room 101
TTITLE7=Different Stories
TTITLE8=The Blood Red Sails
TTITLE9=Solemn Waters
EXTD=YEAR: 2007
EXTT0=
EXTT1=
EXTT2=
EXTT3=
EXTT4=
EXTT5=
EXTT6=
EXTT7=
EXTT8=
EXTT9=
PLAYORDER=
